<svg width="623" height="260" viewBox="0 0 623 260" fill="none" xmlns="http://www.w3.org/2000/svg">
<g opacity="0.3">
<path d="M272.013 113.157C476.678 97.7755 632.197 180.356 619.374 297.606C606.55 414.855 430.241 522.374 225.576 537.755C20.9102 553.136 -134.609 470.555 -121.785 353.306C-108.962 236.057 67.3474 128.538 272.013 113.157Z" stroke="#B2BCCA" stroke-width="1.35865" stroke-miterlimit="10"/>
<path d="M273.082 122.204C471.86 118.933 619.308 209.461 602.417 324.402C585.525 439.343 410.691 535.173 211.913 538.443C13.1356 541.714 -134.313 451.187 -117.422 336.245C-100.53 221.304 74.3043 125.474 273.082 122.204Z" stroke="#B2BCCA" stroke-width="1.35865" stroke-miterlimit="10"/>
<path d="M274.185 131.638C467.087 140.495 606.472 238.964 585.511 351.576C564.55 464.187 391.18 548.296 198.279 539.439C5.37743 530.582 -134.008 432.113 -113.047 319.502C-92.0855 206.89 81.2842 122.781 274.185 131.638Z" stroke="#B2BCCA" stroke-width="1.35865" stroke-miterlimit="10"/>
<path d="M275.799 140.597C462.811 161.585 594.114 268.041 569.072 378.374C544.03 488.707 372.126 561.136 185.114 540.148C-1.89841 519.16 -133.201 412.704 -108.16 302.371C-83.1177 192.038 88.7863 119.609 275.799 140.597Z" stroke="#B2BCCA" stroke-width="1.35865" stroke-miterlimit="10"/>
<path d="M277.094 149.749C458.231 182.863 581.475 297.259 552.367 405.259C523.259 513.258 352.821 573.965 171.684 540.85C-9.45245 507.736 -132.696 393.34 -103.588 285.34C-74.4802 177.34 95.957 116.634 277.094 149.749Z" stroke="#B2BCCA" stroke-width="1.35865" stroke-miterlimit="10"/>
<path d="M278.441 158.675C453.68 203.906 568.838 326.27 535.654 431.983C502.47 537.696 333.509 586.727 158.271 541.496C-16.9682 496.264 -132.126 373.9 -98.9419 268.187C-65.7577 162.474 103.203 113.444 278.441 158.675Z" stroke="#B2BCCA" stroke-width="1.35865" stroke-miterlimit="10"/>
<path d="M279.655 168.182C448.989 225.542 556.063 355.849 518.811 459.231C481.56 562.612 314.088 599.919 144.754 542.558C-24.5808 485.197 -131.655 354.89 -94.403 251.509C-57.1511 148.128 110.32 110.821 279.655 168.182Z" stroke="#B2BCCA" stroke-width="1.35865" stroke-miterlimit="10"/>
<path d="M280.935 177.213C444.395 246.7 543.406 384.97 502.082 486.048C460.757 587.126 294.747 612.736 131.287 543.249C-32.1733 473.762 -131.184 335.492 -89.8593 234.414C-48.5349 133.335 117.475 107.726 280.935 177.213Z" stroke="#B2BCCA" stroke-width="1.35865" stroke-miterlimit="10"/>
<path d="M282.167 186.266C439.732 267.871 530.657 414.11 485.253 512.899C439.85 611.689 275.311 625.62 117.745 544.015C-39.8205 462.41 -130.746 316.171 -85.3421 217.382C-39.9384 118.592 124.601 104.661 282.167 186.266Z" stroke="#B2BCCA" stroke-width="1.35865" stroke-miterlimit="10"/>
<path d="M283.577 195.359C435.256 289.087 518.108 443.284 468.631 539.766C419.155 636.249 256.087 638.482 104.408 544.753C-47.2706 451.025 -130.122 296.829 -80.6458 200.346C-31.1694 103.863 131.899 101.631 283.577 195.359Z" stroke="#B2BCCA" stroke-width="1.35865" stroke-miterlimit="10"/>
<path d="M284.903 204.674C430.692 310.532 505.476 472.674 451.937 566.827C398.398 660.981 236.811 651.493 91.0214 545.635C-54.7678 439.777 -129.551 277.636 -76.0122 183.482C-22.4733 89.3283 139.114 98.8164 284.903 204.674Z" stroke="#B2BCCA" stroke-width="1.35865" stroke-miterlimit="10"/>
<path d="M286.263 213.631C426.178 331.614 492.903 501.714 435.297 593.559C377.69 685.404 217.567 664.214 77.6517 546.23C-62.2638 428.246 -128.988 258.147 -71.382 166.302C-13.7757 74.4572 146.347 95.6468 286.263 213.631Z" stroke="#B2BCCA" stroke-width="1.35865" stroke-miterlimit="10"/>
<path d="M287.575 222.87C421.601 352.983 480.242 531.056 418.553 620.608C356.864 710.159 198.206 677.278 64.1796 547.165C-69.8465 417.052 -128.487 238.979 -66.7984 149.427C-5.10949 59.8757 153.549 92.7575 287.575 222.87Z" stroke="#B2BCCA" stroke-width="1.35865" stroke-miterlimit="10"/>
<path d="M288.701 231.745C416.85 373.973 467.441 559.983 401.699 647.212C335.957 734.44 178.777 689.854 50.628 547.627C-77.5209 405.399 -128.112 219.388 -62.3697 132.16C3.37224 44.932 160.552 89.5179 288.701 231.745Z" stroke="#B2BCCA" stroke-width="1.35865" stroke-miterlimit="10"/>
<path d="M290.03 241.052C412.278 395.397 454.788 589.353 384.98 674.266C315.171 759.178 159.479 702.892 37.2317 548.548C-85.016 394.203 -127.527 200.247 -57.7182 115.335C12.0902 30.422 167.782 86.7076 290.03 241.052Z" stroke="#B2BCCA" stroke-width="1.35865" stroke-miterlimit="10"/>
<path d="M291.56 250.165C407.932 416.646 442.37 618.582 368.48 701.202C294.589 783.822 140.351 715.84 23.9795 549.359C-92.3923 382.879 -126.83 180.942 -52.94 98.3216C20.9502 15.7014 175.188 83.6841 291.56 250.165Z" stroke="#B2BCCA" stroke-width="1.35865" stroke-miterlimit="10"/>
<path d="M292.614 259.256C403.095 437.85 429.474 647.722 351.531 728.018C273.589 808.314 120.841 728.628 10.3595 550.034C-100.122 371.441 -126.501 161.569 -48.5586 81.2727C29.3837 0.976506 182.132 80.6622 292.614 259.256Z" stroke="#B2BCCA" stroke-width="1.35865" stroke-miterlimit="10"/>
<path d="M294.125 268.248C398.726 458.964 417.036 676.797 335.022 754.791C253.009 832.786 101.728 741.407 -2.87206 550.691C-107.472 359.975 -125.782 142.143 -43.769 64.1481C38.2446 -13.8465 189.525 77.5319 294.125 268.248Z" stroke="#B2BCCA" stroke-width="1.35865" stroke-miterlimit="10"/>
<path d="M295.301 277.376C394.007 480.198 404.242 705.973 318.162 781.659C232.082 857.345 82.2838 754.281 -16.422 551.46C-115.128 348.638 -125.363 122.863 -39.2829 47.1766C46.797 -28.5095 196.595 74.5543 295.301 277.376Z" stroke="#B2BCCA" stroke-width="1.35865" stroke-miterlimit="10"/>
<path d="M296.423 286.62C389.239 501.572 391.393 735.314 301.234 808.698C211.076 882.082 62.7459 767.318 -30.0696 552.367C-122.885 337.415 -125.039 103.673 -34.8806 30.2892C55.2779 -43.0946 203.608 71.6687 296.423 286.62Z" stroke="#B2BCCA" stroke-width="1.35865" stroke-miterlimit="10"/>
</g>
</svg>
